<svg width="798" height="199" viewBox="0 0 798 199" fill="none" xmlns="http://www.w3.org/2000/svg">
<path d="M7 135.46H408.5L508.5 35.46" stroke="url(#paint0_linear_87_10633)"/>
<path opacity="0.7" d="M1 140.46L1 129.46L12 129.46L12 140.46L1 140.46Z" stroke="#B5B5B5" stroke-width="0.512383" stroke-miterlimit="10"/>
<path d="M7 191.96H519.5L711 0.459961" stroke="url(#paint1_linear_87_10633)"/>
<path opacity="0.7" d="M1 196.46L1 185.46L12 185.46L12 196.46L1 196.46Z" stroke="#B5B5B5" stroke-width="0.512383" stroke-miterlimit="10"/>
<path fill-rule="evenodd" clip-rule="evenodd" d="M519.853 193.312L519.853 198.628H518.316L518.316 193.312H513V191.775H518.316L518.316 186.46H519.853L519.853 191.775H525.168V193.312H519.853Z" fill="#4FDFFF"/>
<path fill-rule="evenodd" clip-rule="evenodd" d="M407.853 136.312L407.853 141.628H406.316L406.316 136.312H401V134.775H406.316L406.316 129.46H407.853L407.853 134.775H413.168V136.312H407.853Z" fill="#4FDFFF"/>
<g opacity="0.5">
<g opacity="0.3">
<path d="M693.133 147.46H690.23V192.862H693.133V147.46Z" fill="#828282"/>
</g>
<path d="M693.133 174.394H690.23V192.873H693.133V174.394Z" fill="#828282"/>
<path d="M693.133 177.593H690.23V192.873H693.133V177.593Z" fill="#A8A8A8"/>
<path d="M693.133 177.593H690.23V192.873H693.133V177.593Z" fill="#A8A8A8"/>
<g opacity="0.3">
<path d="M730.932 147.46H728.029V192.862H730.932V147.46Z" fill="#828282"/>
</g>
<path d="M730.932 181.77H728.029V192.862H730.932V181.77Z" fill="#A8A8A8"/>
<g opacity="0.3">
<path d="M702.579 147.46H699.676V192.862H702.579V147.46Z" fill="#828282"/>
</g>
<path opacity="0.5" d="M702.579 159.926H699.676V192.862H702.579V159.926Z" fill="#828282"/>
<path d="M702.579 177.582H699.676V192.873H702.579V177.582Z" fill="#A8A8A8"/>
<path d="M702.579 165.203H699.676V192.851H702.579V165.203Z" fill="#828282"/>
<path d="M702.579 177.582H699.676V192.873H702.579V177.582Z" fill="#A8A8A8"/>
<g opacity="0.3">
<path d="M712.041 147.46H709.138V192.862H712.041V147.46Z" fill="#828282"/>
</g>
<path opacity="0.5" d="M712.041 162.928H709.138V192.863H712.041V162.928Z" fill="#828282"/>
<path d="M712.041 177.571H709.138V192.863H712.041V177.571Z" fill="#A8A8A8"/>
<path d="M712.041 165.203H709.138V192.862H712.041V165.203Z" fill="#828282"/>
<path d="M712.041 177.571H709.138V192.863H712.041V177.571Z" fill="#A8A8A8"/>
<g opacity="0.3">
<path d="M721.486 147.46H718.583V192.862H721.486V147.46Z" fill="#828282"/>
</g>
<path opacity="0.5" d="M721.486 156.475H718.583V192.863H721.486V156.475Z" fill="#828282"/>
<path d="M721.486 165.203H718.583V192.862H721.486V165.203Z" fill="#828282"/>
<path d="M721.486 177.582H718.583V192.873H721.486V177.582Z" fill="#A8A8A8"/>
<path d="M721.486 177.582H718.583V192.873H721.486V177.582Z" fill="#A8A8A8"/>
<g opacity="0.3">
<path d="M740.378 147.46H737.476V192.862H740.378V147.46Z" fill="#828282"/>
</g>
<path opacity="0.5" d="M740.378 156.475H737.476V192.863H740.378V156.475Z" fill="#828282"/>
<path d="M740.378 165.203H737.476V192.862H740.378V165.203Z" fill="#828282"/>
<path d="M740.378 177.582H737.476V192.873H740.378V177.582Z" fill="#A8A8A8"/>
<g opacity="0.3">
<path d="M749.824 147.46H746.921V192.862H749.824V147.46Z" fill="#828282"/>
</g>
<path d="M749.824 174.394H746.921V192.873H749.824V174.394Z" fill="#828282"/>
<path d="M749.824 177.593H746.921V192.873H749.824V177.593Z" fill="#A8A8A8"/>
<path d="M749.824 177.593H746.921V192.873H749.824V177.593Z" fill="#A8A8A8"/>
<g opacity="0.3">
<path d="M787.607 147.46H784.704V192.862H787.607V147.46Z" fill="#828282"/>
</g>
<path d="M787.607 181.77H784.704V192.862H787.607V181.77Z" fill="#A8A8A8"/>
<g opacity="0.3">
<path d="M759.27 147.46H756.367V192.862H759.27V147.46Z" fill="#828282"/>
</g>
<path opacity="0.5" d="M759.27 159.926H756.367V192.862H759.27V159.926Z" fill="#828282"/>
<path d="M759.27 177.582H756.367V192.873H759.27V177.582Z" fill="#A8A8A8"/>
<path d="M759.27 165.203H756.367V192.851H759.27V165.203Z" fill="#828282"/>
<path d="M759.27 177.582H756.367V192.873H759.27V177.582Z" fill="#A8A8A8"/>
<g opacity="0.3">
<path d="M768.715 147.46H765.812V192.862H768.715V147.46Z" fill="#828282"/>
</g>
<path opacity="0.5" d="M768.715 162.928H765.812V192.863H768.715V162.928Z" fill="#828282"/>
<path d="M768.715 177.571H765.812V192.863H768.715V177.571Z" fill="#A8A8A8"/>
<path d="M768.715 165.203H765.812V192.862H768.715V165.203Z" fill="#828282"/>
<path d="M768.715 177.571H765.812V192.863H768.715V177.571Z" fill="#A8A8A8"/>
<g opacity="0.3">
<path d="M778.162 147.46H775.259V192.862H778.162V147.46Z" fill="#828282"/>
</g>
<path opacity="0.5" d="M778.162 168.93H775.259V192.873H778.162V168.93Z" fill="#828282"/>
<path d="M778.162 172.25H775.259V192.862H778.162V172.25Z" fill="#828282"/>
<path d="M778.162 177.582H775.259V192.873H778.162V177.582Z" fill="#A8A8A8"/>
<path d="M778.162 177.582H775.259V192.873H778.162V177.582Z" fill="#A8A8A8"/>
<g opacity="0.3">
<path d="M797.053 147.46H794.15V192.862H797.053V147.46Z" fill="#828282"/>
</g>
<path opacity="0.5" d="M797.053 147.46H794.15V192.862H797.053V147.46Z" fill="#828282"/>
<path d="M797.053 158.717H794.15V192.863H797.053V158.717Z" fill="#828282"/>
<path d="M797.053 168.677H794.15V192.874H797.053V168.677Z" fill="#A8A8A8"/>
<g style="mix-blend-mode:color-dodge">
<path d="M796.869 169.04H690.185C690.108 169.04 690.031 168.996 690.031 168.93C690.031 168.864 690.093 168.82 690.185 168.82H796.869C796.946 168.82 797.023 168.864 797.023 168.93C797.023 168.996 796.961 169.04 796.869 169.04Z" fill="#828282"/>
</g>
<g style="mix-blend-mode:color-dodge">
<path d="M796.915 158.937H690.154C690.077 158.937 690 158.893 690 158.827C690 158.761 690.061 158.717 690.154 158.717H796.915C796.992 158.717 797.068 158.761 797.068 158.827C797.068 158.893 797.007 158.937 796.915 158.937V158.937Z" fill="#828282"/>
</g>
</g>
<g opacity="0.5">
<g style="mix-blend-mode:screen">
<path d="M697.058 111.439C693.71 111.439 690.995 114.153 690.995 117.499V128.199C690.995 131.545 693.71 134.259 697.058 134.259H789.836C793.184 134.259 795.899 131.53 795.899 128.199V117.499C795.899 114.153 793.168 111.439 789.836 111.439H697.058V111.439Z" fill="url(#paint2_linear_87_10633)"/>
</g>
<path d="M796.254 128.261C796.254 128.261 796.254 128.23 796.254 128.215V117.514C796.254 117.514 796.254 117.484 796.254 117.468C796.655 117.36 796.949 117.006 796.887 116.574C796.47 113.398 793.956 110.884 790.778 110.468C790.346 110.407 789.975 110.699 789.883 111.1C789.883 111.1 789.852 111.1 789.837 111.1H697.058C697.058 111.1 697.028 111.1 697.012 111.1C696.904 110.699 696.549 110.407 696.117 110.468C692.939 110.884 690.425 113.398 690.008 116.574C689.947 117.006 690.24 117.376 690.641 117.468C690.641 117.468 690.641 117.499 690.641 117.514V128.215C690.641 128.215 690.641 128.246 690.641 128.261C690.24 128.369 689.947 128.724 690.008 129.155C690.425 132.332 692.939 134.845 696.117 135.261C696.549 135.323 696.92 135.03 697.012 134.629C697.012 134.629 697.043 134.629 697.058 134.629H789.837C789.837 134.629 789.867 134.629 789.883 134.629C789.991 135.03 790.346 135.323 790.778 135.261C793.94 134.845 796.47 132.332 796.887 129.155C796.949 128.724 796.655 128.354 796.254 128.261ZM697.058 134.29C693.711 134.29 690.996 131.561 690.996 128.23V117.53C690.996 114.184 693.711 111.47 697.058 111.47H789.837C793.184 111.47 795.899 114.184 795.899 117.53V128.23C795.899 131.576 793.169 134.29 789.837 134.29H697.058Z" fill="#989898"/>
<g style="mix-blend-mode:screen">
<path d="M786.751 131.268C785.979 131.268 785.347 130.635 785.347 129.865V115.865C785.347 115.094 785.979 114.461 786.751 114.461C787.522 114.461 788.154 115.094 788.154 115.865V129.865C788.154 130.635 787.522 131.268 786.751 131.268Z" fill="url(#paint3_linear_87_10633)"/>
<path d="M782.987 131.268C782.215 131.268 781.583 130.635 781.583 129.865V115.865C781.583 115.094 782.215 114.461 782.987 114.461C783.758 114.461 784.391 115.094 784.391 115.865V129.865C784.391 130.635 783.758 131.268 782.987 131.268Z" fill="url(#paint4_linear_87_10633)"/>
<path d="M779.222 131.268C778.451 131.268 777.818 130.635 777.818 129.865V115.865C777.818 115.094 778.451 114.461 779.222 114.461C779.994 114.461 780.626 115.094 780.626 115.865V129.865C780.626 130.635 779.994 131.268 779.222 131.268Z" fill="url(#paint5_linear_87_10633)"/>
<path d="M775.458 131.268C774.686 131.268 774.054 130.635 774.054 129.865V115.865C774.054 115.094 774.686 114.461 775.458 114.461C776.229 114.461 776.861 115.094 776.861 115.865V129.865C776.861 130.635 776.229 131.268 775.458 131.268Z" fill="url(#paint6_linear_87_10633)"/>
<path d="M771.678 131.268C770.907 131.268 770.274 130.635 770.274 129.865V115.865C770.274 115.094 770.907 114.461 771.678 114.461C772.45 114.461 773.082 115.094 773.082 115.865V129.865C773.082 130.635 772.45 131.268 771.678 131.268Z" fill="url(#paint7_linear_87_10633)"/>
<path d="M767.915 131.268C767.143 131.268 766.511 130.635 766.511 129.865V115.865C766.511 115.094 767.143 114.461 767.915 114.461C768.686 114.461 769.318 115.094 769.318 115.865V129.865C769.318 130.635 768.686 131.268 767.915 131.268Z" fill="url(#paint8_linear_87_10633)"/>
<path d="M764.15 131.268C763.379 131.268 762.746 130.635 762.746 129.865V115.865C762.746 115.094 763.379 114.461 764.15 114.461C764.921 114.461 765.554 115.094 765.554 115.865V129.865C765.554 130.635 764.921 131.268 764.15 131.268Z" fill="url(#paint9_linear_87_10633)"/>
<path d="M760.386 131.268C759.615 131.268 758.982 130.635 758.982 129.865V115.865C758.982 115.094 759.615 114.461 760.386 114.461C761.158 114.461 761.79 115.094 761.79 115.865V129.865C761.79 130.635 761.158 131.268 760.386 131.268Z" fill="url(#paint10_linear_87_10633)"/>
<path d="M756.622 131.268C755.85 131.268 755.218 130.635 755.218 129.865V115.865C755.218 115.094 755.85 114.461 756.622 114.461C757.393 114.461 758.025 115.094 758.025 115.865V129.865C758.025 130.635 757.393 131.268 756.622 131.268Z" fill="url(#paint11_linear_87_10633)"/>
<path d="M752.857 131.268C752.086 131.268 751.453 130.635 751.453 129.865V115.865C751.453 115.094 752.086 114.461 752.857 114.461C753.628 114.461 754.261 115.094 754.261 115.865V129.865C754.261 130.635 753.628 131.268 752.857 131.268Z" fill="url(#paint12_linear_87_10633)"/>
<path d="M749.093 131.268C748.322 131.268 747.689 130.635 747.689 129.865V115.865C747.689 115.094 748.322 114.461 749.093 114.461C749.865 114.461 750.497 115.094 750.497 115.865V129.865C750.497 130.635 749.865 131.268 749.093 131.268Z" fill="url(#paint13_linear_87_10633)"/>
<path d="M745.33 131.268C744.558 131.268 743.926 130.635 743.926 129.865V115.865C743.926 115.094 744.558 114.461 745.33 114.461C746.101 114.461 746.734 115.094 746.734 115.865V129.865C746.734 130.635 746.101 131.268 745.33 131.268Z" fill="url(#paint14_linear_87_10633)"/>
<path d="M741.565 131.268C740.794 131.268 740.161 130.635 740.161 129.865V115.865C740.161 115.094 740.794 114.461 741.565 114.461C742.336 114.461 742.969 115.094 742.969 115.865V129.865C742.969 130.635 742.336 131.268 741.565 131.268Z" fill="url(#paint15_linear_87_10633)"/>
<path d="M737.8 131.268C737.029 131.268 736.396 130.635 736.396 129.865V115.865C736.396 115.094 737.029 114.461 737.8 114.461C738.572 114.461 739.204 115.094 739.204 115.865V129.865C739.204 130.635 738.572 131.268 737.8 131.268Z" fill="url(#paint16_linear_87_10633)"/>
<path d="M734.037 131.268C733.265 131.268 732.633 130.635 732.633 129.865V115.865C732.633 115.094 733.265 114.461 734.037 114.461C734.808 114.461 735.441 115.094 735.441 115.865V129.865C735.441 130.635 734.808 131.268 734.037 131.268Z" fill="url(#paint17_linear_87_10633)"/>
<path d="M730.272 131.268C729.501 131.268 728.868 130.635 728.868 129.865V115.865C728.868 115.094 729.501 114.461 730.272 114.461C731.043 114.461 731.676 115.094 731.676 115.865V129.865C731.676 130.635 731.043 131.268 730.272 131.268Z" fill="url(#paint18_linear_87_10633)"/>
<path d="M726.508 131.268C725.737 131.268 725.104 130.635 725.104 129.865V115.865C725.104 115.094 725.737 114.461 726.508 114.461C727.28 114.461 727.912 115.094 727.912 115.865V129.865C727.912 130.635 727.28 131.268 726.508 131.268Z" fill="url(#paint19_linear_87_10633)"/>
<path d="M722.744 131.268C721.972 131.268 721.34 130.635 721.34 129.865V115.865C721.34 115.094 721.972 114.461 722.744 114.461C723.515 114.461 724.148 115.094 724.148 115.865V129.865C724.148 130.635 723.515 131.268 722.744 131.268Z" fill="url(#paint20_linear_87_10633)"/>
<path d="M718.98 131.268C718.209 131.268 717.576 130.635 717.576 129.865V115.865C717.576 115.094 718.209 114.461 718.98 114.461C719.751 114.461 720.384 115.094 720.384 115.865V129.865C720.384 130.635 719.751 131.268 718.98 131.268Z" fill="url(#paint21_linear_87_10633)"/>
<path d="M715.215 131.268C714.444 131.268 713.812 130.635 713.812 129.865V115.865C713.812 115.094 714.444 114.461 715.215 114.461C715.987 114.461 716.619 115.094 716.619 115.865V129.865C716.619 130.635 715.987 131.268 715.215 131.268Z" fill="url(#paint22_linear_87_10633)"/>
<path d="M711.452 131.268C710.68 131.268 710.048 130.635 710.048 129.865V115.865C710.048 115.094 710.68 114.461 711.452 114.461C712.223 114.461 712.856 115.094 712.856 115.865V129.865C712.856 130.635 712.223 131.268 711.452 131.268Z" fill="url(#paint23_linear_87_10633)"/>
<path d="M707.687 131.268C706.916 131.268 706.283 130.635 706.283 129.865V115.865C706.283 115.094 706.916 114.461 707.687 114.461C708.458 114.461 709.091 115.094 709.091 115.865V129.865C709.091 130.635 708.458 131.268 707.687 131.268Z" fill="url(#paint24_linear_87_10633)"/>
<path d="M703.923 131.268C703.152 131.268 702.52 130.635 702.52 129.865V115.865C702.52 115.094 703.152 114.461 703.923 114.461C704.695 114.461 705.327 115.094 705.327 115.865V129.865C705.327 130.635 704.695 131.268 703.923 131.268Z" fill="url(#paint25_linear_87_10633)"/>
<path d="M700.159 131.268C699.387 131.268 698.755 130.635 698.755 129.865V115.865C698.755 115.094 699.387 114.461 700.159 114.461C700.93 114.461 701.563 115.094 701.563 115.865V129.865C701.563 130.635 700.93 131.268 700.159 131.268Z" fill="url(#paint26_linear_87_10633)"/>
</g>
</g>
<defs>
<linearGradient id="paint0_linear_87_10633" x1="68" y1="74.46" x2="530.5" y2="74.46" gradientUnits="userSpaceOnUse">
<stop stop-color="#707070"/>
<stop offset="1" stop-color="#707070" stop-opacity="0"/>
</linearGradient>
<linearGradient id="paint1_linear_87_10633" x1="-38" y1="191.96" x2="822" y2="191.96" gradientUnits="userSpaceOnUse">
<stop stop-color="#707070"/>
<stop offset="1" stop-color="#707070" stop-opacity="0"/>
</linearGradient>
<linearGradient id="paint2_linear_87_10633" x1="690.995" y1="122.865" x2="795.914" y2="122.865" gradientUnits="userSpaceOnUse">
<stop stop-color="#8D8D8D"/>
<stop offset="0.09" stop-color="#6B6B6B"/>
<stop offset="0.2" stop-color="#4A4A4A"/>
<stop offset="0.31" stop-color="#2F2F2F"/>
<stop offset="0.44" stop-color="#1A1A1A"/>
<stop offset="0.58" stop-color="#0B0B0B"/>
<stop offset="0.75" stop-color="#020202"/>
<stop offset="1"/>
</linearGradient>
<linearGradient id="paint3_linear_87_10633" x1="698.508" y1="122.865" x2="788.756" y2="122.865" gradientUnits="userSpaceOnUse">
<stop stop-color="#989898"/>
<stop offset="0.5" stop-color="#909090"/>
<stop offset="0.57" stop-color="#868686"/>
<stop offset="0.68" stop-color="#6C6C6C"/>
<stop offset="0.82" stop-color="#414141"/>
<stop offset="0.98" stop-color="#060606"/>
<stop offset="1"/>
</linearGradient>
<linearGradient id="paint4_linear_87_10633" x1="698.524" y1="122.865" x2="788.757" y2="122.865" gradientUnits="userSpaceOnUse">
<stop stop-color="#989898"/>
<stop offset="0.5" stop-color="#909090"/>
<stop offset="0.57" stop-color="#868686"/>
<stop offset="0.68" stop-color="#6C6C6C"/>
<stop offset="0.82" stop-color="#414141"/>
<stop offset="0.98" stop-color="#060606"/>
<stop offset="1"/>
</linearGradient>
<linearGradient id="paint5_linear_87_10633" x1="698.524" y1="122.865" x2="788.756" y2="122.865" gradientUnits="userSpaceOnUse">
<stop stop-color="#989898"/>
<stop offset="0.5" stop-color="#909090"/>
<stop offset="0.57" stop-color="#868686"/>
<stop offset="0.68" stop-color="#6C6C6C"/>
<stop offset="0.82" stop-color="#414141"/>
<stop offset="0.98" stop-color="#060606"/>
<stop offset="1"/>
</linearGradient>
<linearGradient id="paint6_linear_87_10633" x1="698.523" y1="122.865" x2="788.756" y2="122.865" gradientUnits="userSpaceOnUse">
<stop stop-color="#989898"/>
<stop offset="0.5" stop-color="#909090"/>
<stop offset="0.57" stop-color="#868686"/>
<stop offset="0.68" stop-color="#6C6C6C"/>
<stop offset="0.82" stop-color="#414141"/>
<stop offset="0.98" stop-color="#060606"/>
<stop offset="1"/>
</linearGradient>
<linearGradient id="paint7_linear_87_10633" x1="698.524" y1="122.865" x2="788.756" y2="122.865" gradientUnits="userSpaceOnUse">
<stop stop-color="#989898"/>
<stop offset="0.5" stop-color="#909090"/>
<stop offset="0.57" stop-color="#868686"/>
<stop offset="0.68" stop-color="#6C6C6C"/>
<stop offset="0.82" stop-color="#414141"/>
<stop offset="0.98" stop-color="#060606"/>
<stop offset="1"/>
</linearGradient>
<linearGradient id="paint8_linear_87_10633" x1="698.524" y1="122.865" x2="788.756" y2="122.865" gradientUnits="userSpaceOnUse">
<stop stop-color="#989898"/>
<stop offset="0.5" stop-color="#909090"/>
<stop offset="0.57" stop-color="#868686"/>
<stop offset="0.68" stop-color="#6C6C6C"/>
<stop offset="0.82" stop-color="#414141"/>
<stop offset="0.98" stop-color="#060606"/>
<stop offset="1"/>
</linearGradient>
<linearGradient id="paint9_linear_87_10633" x1="698.523" y1="122.865" x2="788.756" y2="122.865" gradientUnits="userSpaceOnUse">
<stop stop-color="#989898"/>
<stop offset="0.5" stop-color="#909090"/>
<stop offset="0.57" stop-color="#868686"/>
<stop offset="0.68" stop-color="#6C6C6C"/>
<stop offset="0.82" stop-color="#414141"/>
<stop offset="0.98" stop-color="#060606"/>
<stop offset="1"/>
</linearGradient>
<linearGradient id="paint10_linear_87_10633" x1="698.508" y1="122.865" x2="788.757" y2="122.865" gradientUnits="userSpaceOnUse">
<stop stop-color="#989898"/>
<stop offset="0.5" stop-color="#909090"/>
<stop offset="0.57" stop-color="#868686"/>
<stop offset="0.68" stop-color="#6C6C6C"/>
<stop offset="0.82" stop-color="#414141"/>
<stop offset="0.98" stop-color="#060606"/>
<stop offset="1"/>
</linearGradient>
<linearGradient id="paint11_linear_87_10633" x1="698.508" y1="122.865" x2="788.756" y2="122.865" gradientUnits="userSpaceOnUse">
<stop stop-color="#989898"/>
<stop offset="0.5" stop-color="#909090"/>
<stop offset="0.57" stop-color="#868686"/>
<stop offset="0.68" stop-color="#6C6C6C"/>
<stop offset="0.82" stop-color="#414141"/>
<stop offset="0.98" stop-color="#060606"/>
<stop offset="1"/>
</linearGradient>
<linearGradient id="paint12_linear_87_10633" x1="698.508" y1="122.865" x2="788.771" y2="122.865" gradientUnits="userSpaceOnUse">
<stop stop-color="#989898"/>
<stop offset="0.5" stop-color="#909090"/>
<stop offset="0.57" stop-color="#868686"/>
<stop offset="0.68" stop-color="#6C6C6C"/>
<stop offset="0.82" stop-color="#414141"/>
<stop offset="0.98" stop-color="#060606"/>
<stop offset="1"/>
</linearGradient>
<linearGradient id="paint13_linear_87_10633" x1="698.523" y1="122.865" x2="788.756" y2="122.865" gradientUnits="userSpaceOnUse">
<stop stop-color="#989898"/>
<stop offset="0.5" stop-color="#909090"/>
<stop offset="0.57" stop-color="#868686"/>
<stop offset="0.68" stop-color="#6C6C6C"/>
<stop offset="0.82" stop-color="#414141"/>
<stop offset="0.98" stop-color="#060606"/>
<stop offset="1"/>
</linearGradient>
<linearGradient id="paint14_linear_87_10633" x1="698.524" y1="122.865" x2="788.757" y2="122.865" gradientUnits="userSpaceOnUse">
<stop stop-color="#989898"/>
<stop offset="0.5" stop-color="#909090"/>
<stop offset="0.57" stop-color="#868686"/>
<stop offset="0.68" stop-color="#6C6C6C"/>
<stop offset="0.82" stop-color="#414141"/>
<stop offset="0.98" stop-color="#060606"/>
<stop offset="1"/>
</linearGradient>
<linearGradient id="paint15_linear_87_10633" x1="698.508" y1="122.865" x2="788.772" y2="122.865" gradientUnits="userSpaceOnUse">
<stop stop-color="#989898"/>
<stop offset="0.5" stop-color="#909090"/>
<stop offset="0.57" stop-color="#868686"/>
<stop offset="0.68" stop-color="#6C6C6C"/>
<stop offset="0.82" stop-color="#414141"/>
<stop offset="0.98" stop-color="#060606"/>
<stop offset="1"/>
</linearGradient>
<linearGradient id="paint16_linear_87_10633" x1="698.523" y1="122.865" x2="788.756" y2="122.865" gradientUnits="userSpaceOnUse">
<stop stop-color="#989898"/>
<stop offset="0.5" stop-color="#909090"/>
<stop offset="0.57" stop-color="#868686"/>
<stop offset="0.68" stop-color="#6C6C6C"/>
<stop offset="0.82" stop-color="#414141"/>
<stop offset="0.98" stop-color="#060606"/>
<stop offset="1"/>
</linearGradient>
<linearGradient id="paint17_linear_87_10633" x1="698.524" y1="122.865" x2="788.756" y2="122.865" gradientUnits="userSpaceOnUse">
<stop stop-color="#989898"/>
<stop offset="0.5" stop-color="#909090"/>
<stop offset="0.57" stop-color="#868686"/>
<stop offset="0.68" stop-color="#6C6C6C"/>
<stop offset="0.82" stop-color="#414141"/>
<stop offset="0.98" stop-color="#060606"/>
<stop offset="1"/>
</linearGradient>
<linearGradient id="paint18_linear_87_10633" x1="698.523" y1="122.865" x2="788.756" y2="122.865" gradientUnits="userSpaceOnUse">
<stop stop-color="#989898"/>
<stop offset="0.5" stop-color="#909090"/>
<stop offset="0.57" stop-color="#868686"/>
<stop offset="0.68" stop-color="#6C6C6C"/>
<stop offset="0.82" stop-color="#414141"/>
<stop offset="0.98" stop-color="#060606"/>
<stop offset="1"/>
</linearGradient>
<linearGradient id="paint19_linear_87_10633" x1="698.524" y1="122.865" x2="788.756" y2="122.865" gradientUnits="userSpaceOnUse">
<stop stop-color="#989898"/>
<stop offset="0.5" stop-color="#909090"/>
<stop offset="0.57" stop-color="#868686"/>
<stop offset="0.68" stop-color="#6C6C6C"/>
<stop offset="0.82" stop-color="#414141"/>
<stop offset="0.98" stop-color="#060606"/>
<stop offset="1"/>
</linearGradient>
<linearGradient id="paint20_linear_87_10633" x1="698.508" y1="122.865" x2="788.756" y2="122.865" gradientUnits="userSpaceOnUse">
<stop stop-color="#989898"/>
<stop offset="0.5" stop-color="#909090"/>
<stop offset="0.57" stop-color="#868686"/>
<stop offset="0.68" stop-color="#6C6C6C"/>
<stop offset="0.82" stop-color="#414141"/>
<stop offset="0.98" stop-color="#060606"/>
<stop offset="1"/>
</linearGradient>
<linearGradient id="paint21_linear_87_10633" x1="698.524" y1="122.865" x2="788.757" y2="122.865" gradientUnits="userSpaceOnUse">
<stop stop-color="#989898"/>
<stop offset="0.5" stop-color="#909090"/>
<stop offset="0.57" stop-color="#868686"/>
<stop offset="0.68" stop-color="#6C6C6C"/>
<stop offset="0.82" stop-color="#414141"/>
<stop offset="0.98" stop-color="#060606"/>
<stop offset="1"/>
</linearGradient>
<linearGradient id="paint22_linear_87_10633" x1="698.508" y1="122.865" x2="788.756" y2="122.865" gradientUnits="userSpaceOnUse">
<stop stop-color="#989898"/>
<stop offset="0.5" stop-color="#909090"/>
<stop offset="0.57" stop-color="#868686"/>
<stop offset="0.68" stop-color="#6C6C6C"/>
<stop offset="0.82" stop-color="#414141"/>
<stop offset="0.98" stop-color="#060606"/>
<stop offset="1"/>
</linearGradient>
<linearGradient id="paint23_linear_87_10633" x1="698.508" y1="122.865" x2="788.757" y2="122.865" gradientUnits="userSpaceOnUse">
<stop stop-color="#989898"/>
<stop offset="0.5" stop-color="#909090"/>
<stop offset="0.57" stop-color="#868686"/>
<stop offset="0.68" stop-color="#6C6C6C"/>
<stop offset="0.82" stop-color="#414141"/>
<stop offset="0.98" stop-color="#060606"/>
<stop offset="1"/>
</linearGradient>
<linearGradient id="paint24_linear_87_10633" x1="698.508" y1="122.865" x2="788.772" y2="122.865" gradientUnits="userSpaceOnUse">
<stop stop-color="#989898"/>
<stop offset="0.5" stop-color="#909090"/>
<stop offset="0.57" stop-color="#868686"/>
<stop offset="0.68" stop-color="#6C6C6C"/>
<stop offset="0.82" stop-color="#414141"/>
<stop offset="0.98" stop-color="#060606"/>
<stop offset="1"/>
</linearGradient>
<linearGradient id="paint25_linear_87_10633" x1="698.524" y1="122.865" x2="788.757" y2="122.865" gradientUnits="userSpaceOnUse">
<stop stop-color="#989898"/>
<stop offset="0.5" stop-color="#909090"/>
<stop offset="0.57" stop-color="#868686"/>
<stop offset="0.68" stop-color="#6C6C6C"/>
<stop offset="0.82" stop-color="#414141"/>
<stop offset="0.98" stop-color="#060606"/>
<stop offset="1"/>
</linearGradient>
<linearGradient id="paint26_linear_87_10633" x1="698.508" y1="122.865" x2="788.756" y2="122.865" gradientUnits="userSpaceOnUse">
<stop stop-color="#989898"/>
<stop offset="0.5" stop-color="#909090"/>
<stop offset="0.57" stop-color="#868686"/>
<stop offset="0.68" stop-color="#6C6C6C"/>
<stop offset="0.82" stop-color="#414141"/>
<stop offset="0.98" stop-color="#060606"/>
<stop offset="1"/>
</linearGradient>
</defs>
</svg>
