<svg width="203" height="46" viewBox="0 0 203 46" fill="none" xmlns="http://www.w3.org/2000/svg">
<path opacity="0.15" d="M199.428 3H160.142V42.6829H199.428V3Z" fill="#464D56"/>
<path opacity="0.3" d="M199.428 3H160.142V42.6829H199.428V3Z" fill="#464D56" stroke="black" stroke-miterlimit="10"/>
<path d="M162.597 3H160.142V5.48018" fill="#464D56"/>
<path d="M162.597 3H160.142V5.48018" stroke="black" stroke-width="6" stroke-miterlimit="10"/>
<path d="M196.973 3H199.428V5.48018" fill="#464D56"/>
<path d="M196.973 3H199.428V5.48018" stroke="black" stroke-width="6" stroke-miterlimit="10"/>
<path d="M162.597 42.6828H160.142V40.2026" fill="#464D56"/>
<path d="M162.597 42.6828H160.142V40.2026" stroke="black" stroke-width="6" stroke-miterlimit="10"/>
<path d="M196.973 42.6828H199.428V40.2026" fill="#464D56"/>
<path d="M196.973 42.6828H199.428V40.2026" stroke="black" stroke-width="6" stroke-miterlimit="10"/>
<g opacity="0.3">
<path d="M184.696 22.8413H174.875" stroke="black" stroke-width="2" stroke-miterlimit="10"/>
<path d="M179.786 17.8811V27.8018" stroke="black" stroke-width="2" stroke-miterlimit="10"/>
</g>
<path opacity="0.15" d="M160.143 3H120.857V42.6829H160.143V3Z" fill="#464D56"/>
<path opacity="0.3" d="M160.143 3H120.857V42.6829H160.143V3Z" fill="#464D56" stroke="black" stroke-miterlimit="10"/>
<path d="M123.314 3H120.858V5.48018" fill="#464D56"/>
<path d="M123.314 3H120.858V5.48018" stroke="black" stroke-width="6" stroke-miterlimit="10"/>
<path d="M157.689 3H160.144V5.48018" fill="#464D56"/>
<path d="M157.689 3H160.144V5.48018" stroke="black" stroke-width="6" stroke-miterlimit="10"/>
<path d="M123.314 42.6828H120.858V40.2026" fill="#464D56"/>
<path d="M123.314 42.6828H120.858V40.2026" stroke="black" stroke-width="6" stroke-miterlimit="10"/>
<path d="M157.689 42.6828H160.144V40.2026" fill="#464D56"/>
<path d="M157.689 42.6828H160.144V40.2026" stroke="black" stroke-width="6" stroke-miterlimit="10"/>
<g opacity="0.3">
<path d="M145.412 22.8413H135.59" stroke="black" stroke-width="2" stroke-miterlimit="10"/>
<path d="M140.501 17.8809V27.8016" stroke="black" stroke-width="2" stroke-miterlimit="10"/>
</g>
<path opacity="0.15" d="M120.856 3H81.5701V42.6829H120.856V3Z" fill="#464D56"/>
<path opacity="0.3" d="M120.856 3H81.5701V42.6829H120.856V3Z" fill="#464D56" stroke="black" stroke-miterlimit="10"/>
<path d="M84.0252 3H81.5698V5.48018" fill="#464D56"/>
<path d="M84.0252 3H81.5698V5.48018" stroke="black" stroke-width="6" stroke-miterlimit="10"/>
<path d="M118.4 3H120.856V5.48018" fill="#464D56"/>
<path d="M118.4 3H120.856V5.48018" stroke="black" stroke-width="6" stroke-miterlimit="10"/>
<path d="M84.0252 42.6828H81.5698V40.2026" fill="#464D56"/>
<path d="M84.0252 42.6828H81.5698V40.2026" stroke="black" stroke-width="6" stroke-miterlimit="10"/>
<path d="M118.4 42.6828H120.856V40.2026" fill="#464D56"/>
<path d="M118.4 42.6828H120.856V40.2026" stroke="black" stroke-width="6" stroke-miterlimit="10"/>
<g opacity="0.3">
<path d="M106.124 22.8413H96.3027" stroke="black" stroke-width="2" stroke-miterlimit="10"/>
<path d="M101.213 17.8811V27.8018" stroke="black" stroke-width="2" stroke-miterlimit="10"/>
</g>
<path opacity="0.15" d="M81.5712 3H42.2854V42.6829H81.5712V3Z" fill="#464D56"/>
<path opacity="0.3" d="M81.5712 3H42.2854V42.6829H81.5712V3Z" fill="#464D56" stroke="black" stroke-miterlimit="10"/>
<path d="M44.7408 3H42.2854V5.48018" fill="#464D56"/>
<path d="M44.7408 3H42.2854V5.48018" stroke="black" stroke-width="6" stroke-miterlimit="10"/>
<path d="M79.116 3H81.5713V5.48018" fill="#464D56"/>
<path d="M79.116 3H81.5713V5.48018" stroke="black" stroke-width="6" stroke-miterlimit="10"/>
<path d="M44.7408 42.6828H42.2854V40.2026" fill="#464D56"/>
<path d="M44.7408 42.6828H42.2854V40.2026" stroke="black" stroke-width="6" stroke-miterlimit="10"/>
<path d="M79.116 42.6828H81.5713V40.2026" fill="#464D56"/>
<path d="M79.116 42.6828H81.5713V40.2026" stroke="black" stroke-width="6" stroke-miterlimit="10"/>
<g opacity="0.3">
<path d="M66.84 22.8413H57.0186" stroke="black" stroke-width="2" stroke-miterlimit="10"/>
<path d="M61.9292 17.8811V27.8018" stroke="black" stroke-width="2" stroke-miterlimit="10"/>
</g>
<path opacity="0.15" d="M42.2858 3H3V42.6829H42.2858V3Z" fill="#464D56"/>
<path opacity="0.3" d="M42.2858 3H3V42.6829H42.2858V3Z" fill="#464D56" stroke="black" stroke-miterlimit="10"/>
<path d="M5.45585 3H3.00049V5.48018" fill="#464D56"/>
<path d="M5.45585 3H3.00049V5.48018" stroke="black" stroke-width="6" stroke-miterlimit="10"/>
<path d="M39.8311 3H42.2864V5.48018" fill="#464D56"/>
<path d="M39.8311 3H42.2864V5.48018" stroke="black" stroke-width="6" stroke-miterlimit="10"/>
<path d="M5.45585 42.6828H3.00049V40.2026" fill="#464D56"/>
<path d="M5.45585 42.6828H3.00049V40.2026" stroke="black" stroke-width="6" stroke-miterlimit="10"/>
<path d="M39.8311 42.6828H42.2864V40.2026" fill="#464D56"/>
<path d="M39.8311 42.6828H42.2864V40.2026" stroke="black" stroke-width="6" stroke-miterlimit="10"/>
<g opacity="0.3">
<path d="M27.5539 22.8413H17.7324" stroke="black" stroke-width="2" stroke-miterlimit="10"/>
<path d="M22.6431 17.8809V27.8016" stroke="black" stroke-width="2" stroke-miterlimit="10"/>
</g>
</svg>
